<?xml version="1.0" encoding="utf-8"?>
<!-- Generator: Adobe Illustrator 16.0.0, SVG Export Plug-In . SVG Version: 6.00 Build 0)  -->
<!DOCTYPE svg PUBLIC "-//W3C//DTD SVG 1.1//EN" "http://www.w3.org/Graphics/SVG/1.1/DTD/svg11.dtd">
<svg version="1.1" id="eMAV" xmlns="http://www.w3.org/2000/svg" xmlns:xlink="http://www.w3.org/1999/xlink" x="0px" y="0px"
	 width="100px" height="100px" viewBox="0 0 100 100" style="enable-background:new 0 0 100 100;" xml:space="preserve">
<style type="text/css">
<![CDATA[
	.st0{fill:none;stroke:#3399FF;stroke-width:5;stroke-miterlimit:10;}
	.st1{fill:none;stroke:#3399FF;stroke-width:2;stroke-miterlimit:10;}
]]>
</style>
<g id="esteroMAV">
	<circle class="st0" cx="53.1" cy="41.4" r="35.2"/>
	<polyline class="st1" points="21,34 25.7,34 27,34 27,38.7 32.1,48 36.2,48 39.4,50.6 35.5,53.9 40,57.2 40,67.9 46.6,60.9 
		50,57.2 50,53.9 46.9,50.1 43.6,46.4 40.1,42.8 44,39 47.7,35.3 44,31.7 44,26 40,26 40,21.1 40,18 47,18 47,22 50,22 50,28.1 
		54,24.4 54,21.1 57,17.6 57,6 	"/>
	<polyline class="st1" points="81,21 70.1,21 66.4,24 60,24 60,44 57,44 57,45.7 63.8,50.2 64,55.8 64,58.5 68.7,63.3 68.8,56 
		72,56 72,47 77.1,47 80.9,44 89,44 	"/>
	<path class="st0" d="M22.6,11C14.8,18.8,10,29.5,10,41.4c0,23.7,19.2,43,43,43c11.9,0,22.6-4.8,30.4-12.6"/>
	<path class="st0" d="M69.8,95.5c-5-2.7-10.7-3.9-16.7-3.9c-6,0-11.7,1.1-16.7,3.9"/>
	<line class="st1" x1="17.2" y1="5.6" x2="28.1" y2="16.5"/>
	<line class="st1" x1="89.2" y1="77.6" x2="77.9" y2="66.4"/>
	<line class="st0" x1="53.5" y1="92" x2="53.5" y2="84"/>
</g>
</svg>
