<?xml version="1.0" encoding="utf-8"?>
<!-- Generator: Adobe Illustrator 16.0.0, SVG Export Plug-In . SVG Version: 6.00 Build 0)  -->
<!DOCTYPE svg PUBLIC "-//W3C//DTD SVG 1.1//EN" "http://www.w3.org/Graphics/SVG/1.1/DTD/svg11.dtd">
<svg version="1.1" id="eFOOD" xmlns="http://www.w3.org/2000/svg" xmlns:xlink="http://www.w3.org/1999/xlink" x="0px" y="0px"
	 width="100px" height="100px" viewBox="0 0 100 100" style="enable-background:new 0 0 100 100;" xml:space="preserve">
<style type="text/css">
<![CDATA[
	.st0{fill:none;stroke:#FF3366;stroke-width:2;stroke-miterlimit:10;}
	.st1{fill:none;stroke:#FF3366;stroke-width:5;stroke-miterlimit:10;}
]]>
</style>
<g id="esteroFOOD">
	<circle class="st1" cx="49.6" cy="45.2" r="31.2"/>
	<polyline class="st0" points="21,38 25.3,38 27,38 27,42.8 31,51 34.6,51 37.4,53.3 34,56.2 38,59.2 38,68.7 43.9,62.5 47,59.2 
		47,56.3 44.2,52.9 41.2,49.7 38.1,46.5 41.5,43.1 44.5,39.8 41,36.6 41,32 38,32 38,27.3 38,25 44,25 44,28 47,28 47,33.5 50,30.2 
		50,27.3 53,24.2 53,14 	"/>
	<polyline class="st0" points="74,27 64.6,27 61.3,30 56,30 56,47 53,47 53,49 58.9,53 59,58 59,60.4 63.3,64.6 63.5,58 67,58 
		67,50 70.8,50 74.2,47 81,47 	"/>
	<path class="st0" d="M55,8h-4.8C29.8,8,12.7,24.4,12.7,44.8C12.7,65.1,29,81.6,49,81.6V90"/>
	<line class="st0" x1="49" y1="9" x2="49" y2="14"/>
	<line class="st0" x1="49" y1="82" x2="49" y2="76"/>
	<line class="st0" x1="52" y1="76" x2="52" y2="89"/>
	<line class="st0" x1="52" y1="9" x2="52" y2="14"/>
	<line class="st1" x1="19" y1="89.5" x2="80" y2="89.5"/>
</g>
</svg>
