<?xml version="1.0" encoding="utf-8"?>
<!-- Generator: Adobe Illustrator 16.0.0, SVG Export Plug-In . SVG Version: 6.00 Build 0)  -->
<!DOCTYPE svg PUBLIC "-//W3C//DTD SVG 1.1//EN" "http://www.w3.org/Graphics/SVG/1.1/DTD/svg11.dtd">
<svg version="1.1" id="Livello_1" xmlns="http://www.w3.org/2000/svg" xmlns:xlink="http://www.w3.org/1999/xlink" x="0px" y="0px"
	 width="50px" height="50px" viewBox="0 0 50 50" style="enable-background:new 0 0 50 50;" xml:space="preserve">
<style type="text/css">
<![CDATA[
	.st0{fill:none;stroke:#FF3366;stroke-width:3;stroke-linejoin:bevel;stroke-miterlimit:10;}
	.st1{fill:none;stroke:#FF3366;stroke-width:3;stroke-linecap:round;stroke-linejoin:round;stroke-miterlimit:10;}
	.st2{fill:none;stroke:#FF3366;stroke-miterlimit:10;}
	.st3{fill:none;stroke:#FF3366;stroke-width:3;stroke-linejoin:round;stroke-miterlimit:10;}
	.st4{fill:#333333;}
]]>
</style>
<path class="st3" d="M24.9,44.5L32.7,23c-3.1-4.2-13.5-4.1-15.8-0.2L24.9,44.5z"/>
<path class="st1" d="M43.8,30.9c-2.8-2.9-6.7-5.5-10.5-6.6l-7.3,20.3L43.8,30.9z"/>
<path class="st1" d="M23.9,44.5L6.5,30.9c2.8-2.9,6.2-5.5,10-6.6L23.9,44.5z"/>
<path class="st3" d="M18,40.5H5.2c0.7-2,1.9-5.2,3.8-7.1L18,40.5z"/>
<g>
	<path class="st4" d="M19.5,4.3c0,1.6-1,1.6-1,3.3c0,1.6,1,1.6,1,3.3c0,1.6-1,1.6-1,3.3"/>
	<path class="st0" d="M19.5,4.3c0,1.6-1,1.6-1,3.3c0,1.6,1,1.6,1,3.3c0,1.6-1,1.6-1,3.3"/>
</g>
<g>
	<path class="st4" d="M25,4.3c0,1.6-1,1.6-1,3.3c0,1.6,1,1.6,1,3.3c0,1.6-1,1.6-1,3.3"/>
	<path class="st0" d="M25,4.3c0,1.6-1,1.6-1,3.3c0,1.6,1,1.6,1,3.3c0,1.6-1,1.6-1,3.3"/>
</g>
<g>
	<path class="st4" d="M30.9,4.3c0,1.6-1,1.6-1,3.3c0,1.6,1,1.6,1,3.3c0,1.6-1,1.6-1,3.3"/>
	<path class="st0" d="M30.9,4.3c0,1.6-1,1.6-1,3.3c0,1.6,1,1.6,1,3.3c0,1.6-1,1.6-1,3.3"/>
</g>
<line class="st2" x1="41.1" y1="28.5" x2="33.3" y2="34.6"/>
<line class="st2" x1="38.8" y1="27.9" x2="35.7" y2="30.2"/>
<path class="st3" d="M32.2,40.5h12.8c-0.7-2-1.9-5.2-3.8-7.1L32.2,40.5z"/>
</svg>
