<?xml version="1.0" encoding="utf-8"?>
<!-- Generator: Adobe Illustrator 16.0.0, SVG Export Plug-In . SVG Version: 6.00 Build 0)  -->
<!DOCTYPE svg PUBLIC "-//W3C//DTD SVG 1.1//EN" "http://www.w3.org/Graphics/SVG/1.1/DTD/svg11.dtd">
<svg version="1.1" id="FOOD100px" xmlns="http://www.w3.org/2000/svg" xmlns:xlink="http://www.w3.org/1999/xlink" x="0px" y="0px"
	 width="100px" height="100px" viewBox="0 0 100 100" style="enable-background:new 0 0 100 100;" xml:space="preserve">
<style type="text/css">
<![CDATA[
	.st0{fill:none;stroke:#FF3366;stroke-width:5;stroke-linecap:round;stroke-linejoin:round;stroke-miterlimit:10;}
	.st1{fill:none;stroke:#FF3366;stroke-width:2;stroke-miterlimit:10;}
	.st2{fill:none;stroke:#FF3366;stroke-width:5;stroke-linejoin:bevel;stroke-miterlimit:10;}
	.st3{fill:#333333;}
	.st4{fill:none;stroke:#FF3366;stroke-width:5;stroke-linejoin:round;stroke-miterlimit:10;}
]]>
</style>
<g id="FOOD100px_1_">
	<path class="st4" d="M50.6,91.7l16.8-46.4c-6.7-9.1-29.1-8.8-34-0.5L50.6,91.7z"/>
	<path class="st0" d="M89.1,62.4c-6-6.2-14.4-11.9-22.7-14.3L50.6,91.7L89.1,62.4z"/>
	<path class="st0" d="M50.6,91.7L13.1,62.4c6-6.2,13.3-11.9,21.6-14.2L50.6,91.7z"/>
	<path class="st4" d="M34.8,80.5H7.2c1.4-5,4.1-11.1,8.1-15.2L34.8,80.5z"/>
	<g>
		<path class="st3" d="M39,5c0,3.5-2,3.5-2,7.1c0,3.5,2,3.5,2,7.1s-2,3.5-2,7.1"/>
		<path class="st2" d="M39,5c0,3.5-2,3.5-2,7.1c0,3.5,2,3.5,2,7.1s-2,3.5-2,7.1"/>
	</g>
	<g>
		<path class="st3" d="M50.7,5c0,3.5-2,3.5-2,7.1c0,3.5,2,3.5,2,7.1s-2,3.5-2,7.1"/>
		<path class="st2" d="M50.7,5c0,3.5-2,3.5-2,7.1c0,3.5,2,3.5,2,7.1s-2,3.5-2,7.1"/>
	</g>
	<g>
		<path class="st3" d="M63.4,5c0,3.5-2,3.5-2,7.1c0,3.5,2,3.5,2,7.1s-2,3.5-2,7.1"/>
		<path class="st2" d="M63.4,5c0,3.5-2,3.5-2,7.1c0,3.5,2,3.5,2,7.1s-2,3.5-2,7.1"/>
	</g>
	<line class="st1" x1="85.5" y1="57.2" x2="68.7" y2="70.3"/>
	<line class="st1" x1="80.5" y1="55.9" x2="74" y2="61"/>
	<path class="st4" d="M66.4,80.5H94c-1.4-5-4.1-11.1-8.1-15.2L66.4,80.5z"/>
</g>
</svg>
