<?xml version="1.0" encoding="utf-8"?>
<!-- Generator: Adobe Illustrator 16.0.0, SVG Export Plug-In . SVG Version: 6.00 Build 0)  -->
<!DOCTYPE svg PUBLIC "-//W3C//DTD SVG 1.1//EN" "http://www.w3.org/Graphics/SVG/1.1/DTD/svg11.dtd">
<svg version="1.1" id="Livello_1" xmlns="http://www.w3.org/2000/svg" xmlns:xlink="http://www.w3.org/1999/xlink" x="0px" y="0px"
	 width="50px" height="50px" viewBox="0 0 50 50" style="enable-background:new 0 0 50 50;" xml:space="preserve">
<style type="text/css">
<![CDATA[
	.st0{fill:none;stroke:#00FF99;stroke-miterlimit:10;}
	.st1{fill:none;stroke:#00FF99;stroke-width:3;stroke-miterlimit:10;}
	.st2{fill:none;stroke:#00FF99;stroke-width:2;stroke-miterlimit:10;}
]]>
</style>
<g>
	<polyline class="st1" points="33.7,14.2 37,18.6 33.7,23 	"/>
	<polyline class="st1" points="17.7,14.2 14.4,18.6 17.7,23 	"/>
	<line class="st1" x1="22.7" y1="23.2" x2="28.1" y2="14"/>
	<circle class="st2" cx="25.3" cy="35.3" r="1.7"/>
	<line class="st0" x1="4" y1="31.5" x2="47" y2="31.5"/>
	<line class="st0" x1="4" y1="6.5" x2="47" y2="6.5"/>
	<path class="st1" d="M46.5,38.1c0,1.4-1.1,2.4-2.5,2.4H6c-1.4,0-2.5-1.1-2.5-2.4V5.9c0-1.4,1.1-2.4,2.5-2.4H44
		c1.4,0,2.5,1.1,2.5,2.4V38.1z"/>
</g>
<path class="st1" d="M34.5,40.5c1.7,0,3,1.3,3,3l0,0c0,1.7-1.3,3-3,3h-19c-1.7,0-3-1.3-3-3l0,0c0-1.7,1.3-3,3-3"/>
</svg>
