<?xml version="1.0" encoding="utf-8"?>
<!-- Generator: Adobe Illustrator 16.0.0, SVG Export Plug-In . SVG Version: 6.00 Build 0)  -->
<!DOCTYPE svg PUBLIC "-//W3C//DTD SVG 1.1//EN" "http://www.w3.org/Graphics/SVG/1.1/DTD/svg11.dtd">
<svg version="1.1" id="IT100px" xmlns="http://www.w3.org/2000/svg" xmlns:xlink="http://www.w3.org/1999/xlink" x="0px" y="0px"
	 width="100px" height="100px" viewBox="0 0 100 100" style="enable-background:new 0 0 100 100;" xml:space="preserve">
<style type="text/css">
<![CDATA[
	.st0{fill:none;stroke:#00FF99;stroke-width:5;stroke-miterlimit:10;}
	.st1{fill:none;stroke:#00FF99;stroke-width:2;stroke-miterlimit:10;}
]]>
</style>
<g id="IT100px_1_">
	<path class="st0" d="M94.5,78.4c0,2.2-1.3,3.1-3.5,3.1H10.7c-2.2,0-4.2-0.9-4.2-3.1V10.8c0-2.2,2.1-4.3,4.2-4.3H91
		c2.2,0,3.5,2.1,3.5,4.3V78.4z"/>
	<polyline class="st0" points="67.2,29.8 74,38.8 67.2,47.8 	"/>
	<polyline class="st0" points="34.5,29.8 27.8,38.8 34.5,47.8 	"/>
	<line class="st0" x1="44.8" y1="48.1" x2="55.9" y2="29.5"/>
	<path class="st0" d="M76.6,81.5c2.2,0,3.9,1.8,3.9,3.9v5.1c0,2.2-1.8,3.9-3.9,3.9H25.4c-2.2,0-3.9-1.8-3.9-3.9v-5.1
		c0-2.2,1.8-3.9,3.9-3.9"/>
	<circle class="st1" cx="50.1" cy="72.9" r="3.6"/>
	<line class="st1" x1="7" y1="65" x2="94" y2="65"/>
	<line class="st1" x1="7" y1="13" x2="94" y2="13"/>
</g>
</svg>
