<?xml version="1.0" encoding="utf-8"?>
<!-- Generator: Adobe Illustrator 16.0.0, SVG Export Plug-In . SVG Version: 6.00 Build 0)  -->
<!DOCTYPE svg PUBLIC "-//W3C//DTD SVG 1.1//EN" "http://www.w3.org/Graphics/SVG/1.1/DTD/svg11.dtd">
<svg version="1.1" id="itaMAV" xmlns="http://www.w3.org/2000/svg" xmlns:xlink="http://www.w3.org/1999/xlink" x="0px" y="0px"
	 width="100px" height="100px" viewBox="0 0 100 100" style="enable-background:new 0 0 100 100;" xml:space="preserve">
<style type="text/css">
<![CDATA[
	.st0{fill:none;stroke:#3399FF;stroke-width:5;stroke-miterlimit:10;}
]]>
</style>
<g id="italiaMAV">
	<polygon class="st0" points="62.5,51.5 62.5,72.5 74.6,85.5 77.5,85.5 77.5,64.5 93.5,64.5 93.5,48.5 79.9,48.5 52.5,21.2 
		56.5,14.8 56.5,7.5 21.3,7.5 7.2,20.3 21.4,35.6 32.7,26.7 53.7,48.5 58.9,48.5 	"/>
	<polygon class="st0" points="50,74.5 45.3,79.5 27.5,79.5 27.5,88.3 49.5,93.5 60.5,84 51,74.5 	"/>
	<polygon class="st0" points="32.2,43.5 28,43.5 17.5,43.5 17.5,43.7 20.6,47.4 21.7,69.5 29,69.5 31.4,66.5 38,66.3 37.7,47.5 
		33.5,43.5 	"/>
</g>
</svg>
