<?xml version="1.0" encoding="utf-8"?>
<!-- Generator: Adobe Illustrator 16.0.0, SVG Export Plug-In . SVG Version: 6.00 Build 0)  -->
<!DOCTYPE svg PUBLIC "-//W3C//DTD SVG 1.1//EN" "http://www.w3.org/Graphics/SVG/1.1/DTD/svg11.dtd">
<svg version="1.1" id="itaFOOD" xmlns="http://www.w3.org/2000/svg" xmlns:xlink="http://www.w3.org/1999/xlink" x="0px" y="0px"
	 width="100px" height="100px" viewBox="0 0 100 100" style="enable-background:new 0 0 100 100;" xml:space="preserve">
<style type="text/css">
<![CDATA[
	.st0{fill:none;stroke:#FF3366;stroke-width:5;stroke-miterlimit:10;}
]]>
</style>
<g id="italiaFOOD">
	<polygon class="st0" points="60.5,51.5 60.5,71.5 72.5,83.5 75.5,83.5 75.5,63.5 90.5,63.5 90.5,48.5 77.5,48.5 51.5,22.5 
		55.5,16.5 55.5,9.5 21.7,9.5 8.2,21.7 21.7,36.3 32.5,27.8 52.5,48.5 57.5,48.5 	"/>
	<polygon class="st0" points="30.5,78.5 30.5,86.5 51.5,91.5 62,82.5 62,82.5 62,82.5 52.5,73.5 52,73.5 47.5,78.5 	"/>
	<polygon class="st0" points="37.5,47.5 32.5,43.5 28,43.5 18.5,43.5 18.5,44 21.2,47.5 22.1,68.5 29,68.5 31.3,65.7 37.5,65.6 	"/>
</g>
</svg>
