<?xml version="1.0" encoding="utf-8"?>
<!-- Generator: Adobe Illustrator 16.0.0, SVG Export Plug-In . SVG Version: 6.00 Build 0)  -->
<!DOCTYPE svg PUBLIC "-//W3C//DTD SVG 1.1//EN" "http://www.w3.org/Graphics/SVG/1.1/DTD/svg11.dtd">
<svg version="1.1" id="MAV100px" xmlns="http://www.w3.org/2000/svg" xmlns:xlink="http://www.w3.org/1999/xlink" x="0px" y="0px"
	 width="100px" height="100px" viewBox="0 0 100 100" style="enable-background:new 0 0 100 100;" xml:space="preserve">
<style type="text/css">
<![CDATA[
	.st0{fill:none;stroke:#3399FF;stroke-width:5;stroke-miterlimit:10;}
	.st1{fill:none;stroke:#3399FF;stroke-width:2;stroke-miterlimit:10;}
]]>
</style>
<g id="MAV100px_1_">
	
		<rect x="49.6" y="15.1" transform="matrix(0.7071 0.7071 -0.7071 0.7071 37.5906 -33.4972)" class="st0" width="19.3" height="27.1"/>
	<rect x="36.5" y="74.5" class="st0" width="18" height="13"/>
	<path class="st0" d="M48.9,74.4c19.5,0,35.2-16,35.2-35.4l-9.5-9.6"/>
	<line class="st0" x1="36.4" y1="73.5" x2="7.7" y2="44.8"/>
	<path class="st0" d="M55.5,80.9c19.5,0,35.2-16,35.2-35.4l-9.5-9.6"/>
	<rect x="70" y="8.6" transform="matrix(0.7072 0.707 -0.707 0.7072 31.5656 -47.6078)" class="st0" width="6.4" height="11.4"/>
	
		<rect x="39.3" y="37.3" transform="matrix(0.7071 0.7071 -0.7071 0.7071 42.9295 -20.8495)" class="st0" width="14.7" height="8.3"/>
	<line class="st1" x1="12" y1="41.3" x2="39.6" y2="68.9"/>
	<circle class="st1" cx="45" cy="80.7" r="2.2"/>
	<path class="st0" d="M91.5,91.3c0,1.8-1.4,3.2-3.2,3.2H11.7c-1.8,0-3.2-1.4-3.2-3.2v-0.6c0-1.8,1.4-3.2,3.2-3.2h76.6
		c1.8,0,3.2,1.4,3.2,3.2V91.3z"/>
	<path class="st1" d="M66.1,25.3c0,2-1.6,3.6-3.6,3.6c-2,0-3.6-1.6-3.6-3.6c0-2,1.6-3.6,3.6-3.6C64.5,21.7,66.1,23.3,66.1,25.3z"/>
</g>
</svg>
