<?xml version="1.0" encoding="utf-8"?>
<!-- Generator: Adobe Illustrator 16.0.0, SVG Export Plug-In . SVG Version: 6.00 Build 0)  -->
<!DOCTYPE svg PUBLIC "-//W3C//DTD SVG 1.1//EN" "http://www.w3.org/Graphics/SVG/1.1/DTD/svg11.dtd">
<svg version="1.1" id="Livello_1" xmlns="http://www.w3.org/2000/svg" xmlns:xlink="http://www.w3.org/1999/xlink" x="0px" y="0px"
	 width="50px" height="50px" viewBox="0 0 50 50" style="enable-background:new 0 0 50 50;" xml:space="preserve">
<style type="text/css">
<![CDATA[
	.st0{fill:none;stroke:#3399FF;stroke-miterlimit:10;}
	.st1{fill:none;stroke:#3399FF;stroke-width:3;stroke-miterlimit:10;}
]]>
</style>
<g>
	<rect x="24.3" y="6.9" transform="matrix(0.7072 0.7071 -0.7071 0.7072 17.9853 -16.5397)" class="st1" width="9.3" height="13"/>
	<rect x="17.5" y="35.5" class="st1" width="9" height="7"/>
	<path class="st1" d="M24,35.5c9.4,0,17-7.7,17-17.1l-4.6-4.6"/>
	<line class="st1" x1="18" y1="35" x2="4.3" y2="21.2"/>
	<path class="st1" d="M27.2,38.7c9.4,0,17-7.7,17-17.1l-4.6-4.6"/>
	<rect x="34.1" y="3.8" transform="matrix(0.707 0.7072 -0.7072 0.707 15.1044 -23.3101)" class="st1" width="3.1" height="5.5"/>
	<rect x="19.4" y="17.6" transform="matrix(0.7071 0.7071 -0.7071 0.7071 20.5469 -10.4762)" class="st1" width="7" height="4"/>
	<line class="st0" x1="7.3" y1="18.5" x2="20.5" y2="31.8"/>
	<circle class="st0" cx="22.1" cy="39.4" r="1"/>
	<path class="st1" d="M44.5,45c0,0.9-0.7,1.5-1.5,1.5H6c-0.9,0-1.5-0.7-1.5-1.5V44c0-0.9,0.7-1.5,1.5-1.5H43c0.9,0,1.5,0.7,1.5,1.5
		V45z"/>
	<circle class="st0" cx="30.5" cy="11.8" r="1.7"/>
</g>
<rect x="-39.5" y="-11.5" class="st0" width="7" height="6"/>
</svg>
