<?xml version="1.0" encoding="utf-8"?>
<!-- Generator: Adobe Illustrator 16.0.0, SVG Export Plug-In . SVG Version: 6.00 Build 0)  -->
<!DOCTYPE svg PUBLIC "-//W3C//DTD SVG 1.1//EN" "http://www.w3.org/Graphics/SVG/1.1/DTD/svg11.dtd">
<svg version="1.1" id="Livello_1" xmlns="http://www.w3.org/2000/svg" xmlns:xlink="http://www.w3.org/1999/xlink" x="0px" y="0px"
	 width="100px" height="100px" viewBox="0 0 100 100" style="enable-background:new 0 0 100 100;" xml:space="preserve">
<style type="text/css">
<![CDATA[
	.st0{fill:none;stroke:#00FF99;stroke-width:5;stroke-miterlimit:10;}
	.st1{fill:none;stroke:#00FF99;stroke-width:2;stroke-miterlimit:10;}
]]>
</style>
<g>
	
		<rect x="50.6" y="11.9" transform="matrix(0.7071 0.7071 -0.7071 0.7071 36.7366 -35.4159)" class="st0" width="21.1" height="29.5"/>
	<rect x="35.5" y="76.5" class="st0" width="20" height="14"/>
	<path class="st0" d="M49.9,76.5c21.2,0,38.4-17.4,38.4-38.6L77.9,27.4"/>
	<line class="st0" x1="36.3" y1="75.6" x2="5" y2="44.3"/>
	<path class="st0" d="M57.1,83.6c21.2,0,38.4-17.4,38.4-38.6L85.1,34.5"/>
	<rect x="72.9" y="4.8" transform="matrix(0.707 0.7072 -0.7072 0.707 30.1865 -50.7992)" class="st0" width="7" height="12.4"/>
	<rect x="39.4" y="36" transform="matrix(0.7071 0.7071 -0.7071 0.7071 42.5539 -21.6362)" class="st0" width="16" height="9"/>
	<rect x="3.5" y="45.5" transform="matrix(0.7071 0.7071 -0.7071 0.7071 42.444 -3.5083)" class="st0" width="44" height="8"/>
	<line class="st1" x1="54.6" y1="40.3" x2="64.7" y2="30.2"/>
	<circle class="st1" cx="45.5" cy="82.5" r="2.5"/>
	<circle class="st1" cx="65.5" cy="22.5" r="2.5"/>
	<path class="st0" d="M95.5,94c0,1.9-1.6,3.5-3.5,3.5H9c-1.9,0-3.5-1.6-3.5-3.5l0,0c0-1.9,1.6-3.5,3.5-3.5h83
		C93.9,90.5,95.5,92.1,95.5,94L95.5,94z"/>
</g>
</svg>
