<?xml version="1.0" encoding="utf-8"?>
<!-- Generator: Adobe Illustrator 16.0.0, SVG Export Plug-In . SVG Version: 6.00 Build 0)  -->
<!DOCTYPE svg PUBLIC "-//W3C//DTD SVG 1.1//EN" "http://www.w3.org/Graphics/SVG/1.1/DTD/svg11.dtd">
<svg version="1.1" id="Livello_1" xmlns="http://www.w3.org/2000/svg" xmlns:xlink="http://www.w3.org/1999/xlink" x="0px" y="0px"
	 width="50px" height="50px" viewBox="0 0 50 50" style="enable-background:new 0 0 50 50;" xml:space="preserve">
<style type="text/css">
<![CDATA[
	.st0{fill:none;stroke:#FFFF00;stroke-miterlimit:10;}
	.st1{fill:none;stroke:#FFFF00;stroke-width:3;stroke-miterlimit:10;}
	.st2{fill:#E6E6E6;stroke:#FFFF00;stroke-miterlimit:10;}
	.st3{fill:#E6E6E6;stroke:#FFFF00;stroke-width:3;stroke-miterlimit:10;}
]]>
</style>
<g>
	<polyline class="st1" points="30.2,26 45.8,10.4 40.7,5.3 25,20.9 	"/>
	<polyline class="st1" points="20.6,25.4 7.2,38.8 6.4,42.9 5.8,45.3 8.2,44.7 12.3,43.9 25.7,30.5 	"/>
	<line class="st3" x1="41.9" y1="13.4" x2="37.4" y2="8.9"/>
	<polyline class="st1" points="12.5,45 12.5,38.8 7.3,39.4 	"/>
	<line class="st2" x1="9.6" y1="43.6" x2="7.2" y2="41.2"/>
	<line class="st0" x1="12" y1="39.1" x2="23.2" y2="28"/>
	<line class="st0" x1="27.8" y1="23.3" x2="39.7" y2="11.5"/>
</g>
<g>
	<polygon class="st1" points="9.1,17.4 4.7,12.9 5.2,8.4 8.4,11.6 12.3,11.9 11.9,8.2 8.6,4.9 12.8,4.7 17.3,9.2 18.4,14.2 
		36.3,32.1 41.1,33.2 45.5,37.7 45,41.7 41.7,38.5 37.9,38.2 38.2,41.9 41.5,45.2 37.3,45.9 32.9,41.4 31.8,36.6 13.7,18.6 	"/>
</g>
</svg>
