<?xml version="1.0" encoding="utf-8"?>
<!-- Generator: Adobe Illustrator 16.0.0, SVG Export Plug-In . SVG Version: 6.00 Build 0)  -->
<!DOCTYPE svg PUBLIC "-//W3C//DTD SVG 1.1//EN" "http://www.w3.org/Graphics/SVG/1.1/DTD/svg11.dtd">
<svg version="1.1" id="PTECH100px" xmlns="http://www.w3.org/2000/svg" xmlns:xlink="http://www.w3.org/1999/xlink" x="0px" y="0px"
	 width="100px" height="100px" viewBox="0 0 100 100" style="enable-background:new 0 0 100 100;" xml:space="preserve">
<style type="text/css">
<![CDATA[
	.st0{fill:#E6E6E6;stroke:#FFFF00;stroke-width:5;stroke-miterlimit:10;}
	.st1{fill:none;stroke:#FFFF00;stroke-width:2;stroke-miterlimit:10;}
	.st2{fill:#E6E6E6;stroke:#FFFF00;stroke-width:2;stroke-miterlimit:10;}
	.st3{fill:none;stroke:#FFFF00;stroke-width:5;stroke-miterlimit:10;}
]]>
</style>
<g id="PTECH100px_1_">
	<g>
		<polyline class="st3" points="59.7,51.2 91.6,19.3 81.1,8.9 49.3,40.7 		"/>
		<polyline class="st3" points="40.1,49.9 12.8,77.2 11.2,85.6 9.9,90.5 14.9,89.3 23.3,87.6 50.5,60.3 		"/>
		<line class="st0" x1="83.6" y1="25.5" x2="74.4" y2="16.3"/>
		<polyline class="st3" points="22.5,88 22.5,77.3 12,77.5 		"/>
		<line class="st2" x1="17.8" y1="87.1" x2="12.8" y2="82.1"/>
		<line class="st1" x1="22.7" y1="77.9" x2="45.4" y2="55.2"/>
		<line class="st1" x1="55" y1="45.7" x2="79" y2="21.6"/>
	</g>
	<g>
		<polygon class="st3" points="16.8,33.5 7.7,24.4 8.7,15.2 15.4,21.9 23.2,22.4 22.5,14.8 15.8,8.1 24.3,7.8 33.4,16.9 35.6,27.1 
			72.1,63.6 81.9,65.8 90.9,75 89.9,83.2 83.2,76.6 75.5,76 76.2,83.6 82.8,90.3 74.3,91.7 65.2,82.6 63,72.8 26.2,35.9 		"/>
	</g>
</g>
</svg>
